<?xml version="1.0" encoding="UTF-8"?>
<svg id="Calque_2" data-name="Calque 2" xmlns="http://www.w3.org/2000/svg" viewBox="0 0 541.45 541.45">
  <defs>
    <style>
      .cls-1 {
        fill: #00b4af;
      }

      .cls-2 {
        fill: #fff;
      }

      .cls-3 {
        fill: #1d1d1b;
      }

      .cls-4, .cls-5 {
        stroke-width: 5px;
      }

      .cls-4, .cls-5, .cls-6 {
        stroke-miterlimit: 10;
      }

      .cls-4, .cls-6 {
        stroke: #00b4af;
      }

      .cls-5 {
        stroke: #00b0ac;
        stroke-linecap: round;
      }

      .cls-6 {
        stroke-width: 2px;
      }
    </style>
  </defs>
  <g id="Calque_4" data-name="Calque 4">
    <g id="Calque_5" data-name="Calque 5">
      <rect class="cls-2" width="541.45" height="541.45"/>
    </g>
    <path class="cls-1" d="m417.59,356.66l-8.65,14.98c-.06.11-.18.17-.3.17h-17.49c-.12,0-.24-.07-.3-.17l-13.1-22.69c-.06-.11-.06-.24,0-.34l13.2-22.85c.06-.11.18-.17.3-.17h25.8c.26,0,.43.28.3.51l-3.97,7.02c-.06.11-.17.17-.3.17l-17.44.09c-.12,0-.24.07-.3.17l-8.7,15.07c-.06.11-.06.24,0,.34l8.65,14.97c.06.11.18.17.3.17h8.6c.12,0,.24-.07.3-.17l4.05-7.01c.13-.23-.03-.52-.3-.52h-7.7c-.26,0-.43-.29-.3-.52l4.05-7.01c.06-.11.18-.17.3-.17h8.4c.12,0,.24.07.3.17l4.3,7.45c.06.11.06.24,0,.34Z"/>
    <path class="cls-6" d="m225.97,336.08c-.13.23-.46.23-.6,0l-8.55-14.81h0l-8.65,14.81c-.13.23-.46.23-.6,0l-26.1-45.2c-.13-.23.03-.52.3-.52h8.1c.12,0,.24.07.3.17l17.44,30.21c.13.23.46.23.6,0l8.3-14.38c.13-.23.46-.23.6,0l8.3,14.38c.13.23.46.23.6,0l17.44-30.21c.06-.11.18-.17.3-.17h8.01c.26,0,.43.29.3.52l-26.1,45.19Z"/>
    <path class="cls-6" d="m153.23,297.75h-24.13c-.12,0-.24.07-.3.17l-8.65,15.15c-.06.11-.06.24,0,.34l8.65,14.98c.06.11.18.17.3.17h8.11c.26,0,.43.28.3.51l-3.96,7.02c-.06.11-.18.18-.3.18h-8.6c-.12,0-.24-.07-.3-.17l-13.1-22.68c-.06-.11-.06-.24,0-.34l13.2-22.86c.06-.11.18-.17.3-.17h32.44c.26,0,.43.28.3.51l-3.97,7.01c-.06.11-.18.17-.3.17Z"/>
    <path class="cls-4" d="m325.39,164.55h-67.95c-.35,0-.67.18-.84.46l-24.35,40.26c-.17.28-.17.63,0,.91l24.36,39.82c.17.28.49.46.84.46h22.82c.74,0,1.21.75.84,1.36l-11.14,18.66c-.17.29-.49.47-.84.47h-24.2c-.35,0-.67-.17-.84-.46l-36.88-60.29c-.17-.28-.17-.63,0-.91l37.15-60.75c.17-.28.49-.46.84-.46h91.35c.74,0,1.21.76.84,1.37l-11.16,18.64c-.17.29-.49.46-.84.46Z"/>
    <path class="cls-1" d="m355.53,325.59l-8.45.08c-.12,0-.23.07-.29.17l-13.19,22.86-.05.09-12.99,22.51c-.13.23.03.52.3.52h8.1c.12,0,.24-.07.3-.17l8.6-15.06c.06-.11.18-.17.3-.17h26.39c.12,0,.24.07.3.17l8.6,15.06c.06.11.18.17.3.17h8.1c.26,0,.43-.29.3-.52l-26.29-45.54c-.06-.11-.18-.17-.3-.17Zm4.65,23.11h-17.69l8.84-15.32h0l8.85,15.32h0Z"/>
    <path class="cls-6" d="m174.18,290.46h-8.39c-.12,0-.24.07-.3.17l-26.29,45.54c-.13.23.03.52.3.52h8.1c.12,0,.24-.07.3-.17l8.6-15.06c.06-.11.18-.17.3-.17h26.39c.12,0,.24.07.3.17l8.6,15.06c.06.11.18.17.3.17h8.1c.26,0,.43-.29.3-.52l-26.29-45.54c-.06-.11-.18-.17-.3-.17Zm4.65,23.11h-17.69l8.84-15.32h0l8.85,15.32h0Z"/>
    <path class="cls-6" d="m267.76,290.04h-8.39c-.12,0-.24.07-.3.17l-26.29,45.54c-.13.23.03.52.3.52h8.1c.12,0,.24-.07.3-.17l8.6-15.06c.06-.11.18-.17.3-.17h26.4c.12,0,.23.06.3.17l3.99,6.69c.14.23.46.22.59,0l3.98-7.01c.06-.11.06-.24,0-.34l-17.56-30.14c-.06-.11-.17-.17-.3-.17Zm4.65,23.11h-17.69l8.84-15.32h0l8.85,15.32h0Z"/>
    <path class="cls-1" d="m364.53,325.58l-26.34.09c-.12,0-.24.07-.3.17l-26.25,45.46c-.13.23-.46.23-.59,0l-4.09-6.94c-.06-.11-.06-.24,0-.35l22.14-38.35.05-.09h-26.09c-.26,0-.43-.29-.3-.52l4.05-7.01c.06-.11.18-.17.3-.17h61.39c.26,0,.43.28.3.51l-3.96,7.01c-.06.11-.17.17-.3.17Z"/>
    <path class="cls-6" d="m318.47,336.72h-34.79c-.26,0-.43-.29-.3-.52l26.29-45.54c.06-.11.18-.17.3-.17l8.05.07c.26,0,.43.29.29.52l-21.89,37.93h26c.26,0,.43.28.3.51l-3.96,7.02c-.06.11-.18.18-.3.18Z"/>
    <g>
      <path class="cls-3" d="m127.37,354.37l1.41-.13v.37c-.01.42.08.79.27,1.14.19.34.5.61.94.8.44.19.96.28,1.57.28.86,0,1.51-.19,1.97-.56.45-.38.68-.81.68-1.29,0-.34-.12-.64-.36-.92-.24-.27-.91-.64-2-1.11-.84-.37-1.42-.65-1.73-.84-.48-.32-.84-.66-1.07-1.04-.23-.37-.34-.8-.34-1.28,0-.55.15-1.05.45-1.49s.75-.78,1.33-1.02c.58-.23,1.24-.35,1.97-.35.87,0,1.61.15,2.21.44.6.29,1.04.68,1.31,1.17.27.49.41.95.41,1.4,0,.04,0,.12,0,.22l-1.38.11c0-.3-.03-.54-.08-.71-.1-.3-.25-.55-.45-.75s-.49-.37-.85-.49c-.36-.12-.76-.19-1.21-.19-.78,0-1.39.18-1.82.53-.33.27-.5.62-.5,1.07,0,.26.07.5.21.71s.38.41.74.61c.25.14.86.42,1.81.84.77.34,1.3.61,1.6.81.39.26.69.57.9.94.21.37.31.79.31,1.26,0,.58-.18,1.12-.53,1.61-.35.49-.84.87-1.47,1.14s-1.34.4-2.15.4c-1.22,0-2.21-.26-2.98-.79-.77-.53-1.16-1.48-1.16-2.86Z"/>
      <path class="cls-3" d="m136.16,360.82l2.25-10.76h1.22l-.23,1.08c.45-.47.86-.8,1.22-.99.36-.18.74-.27,1.14-.27.74,0,1.36.27,1.85.81s.73,1.31.73,2.32c0,.81-.13,1.55-.4,2.22-.27.67-.6,1.2-.99,1.61s-.79.7-1.19.89-.81.29-1.23.29c-.93,0-1.66-.47-2.17-1.42l-.88,4.23h-1.33Zm2.62-6.16c0,.58.04.98.12,1.21.12.32.32.57.6.77s.6.29.97.29c.76,0,1.38-.43,1.85-1.29.47-.86.7-1.73.7-2.63,0-.66-.16-1.17-.47-1.53-.31-.36-.71-.54-1.18-.54-.34,0-.65.09-.94.27s-.55.44-.8.8c-.25.35-.45.79-.61,1.3s-.24.96-.24,1.34Z"/>
      <path class="cls-3" d="m145.39,354.89c0-1.52.45-2.78,1.34-3.77.74-.82,1.7-1.23,2.9-1.23.94,0,1.69.29,2.27.88.57.59.86,1.38.86,2.37,0,.89-.18,1.72-.54,2.49-.36.77-.88,1.36-1.54,1.77-.67.41-1.37.62-2.11.62-.61,0-1.16-.13-1.65-.39-.5-.26-.87-.62-1.14-1.1-.26-.47-.39-1.02-.39-1.64Zm1.33-.13c0,.73.18,1.29.53,1.67s.8.57,1.34.57c.28,0,.56-.06.84-.17.28-.11.54-.29.78-.52.24-.23.44-.5.61-.8.17-.3.3-.62.41-.97.15-.48.23-.95.23-1.39,0-.7-.18-1.25-.53-1.64-.35-.39-.8-.58-1.34-.58-.42,0-.79.1-1.13.3-.34.2-.65.49-.93.87-.28.38-.48.82-.61,1.33-.13.5-.19.96-.19,1.35Z"/>
      <path class="cls-3" d="m153.5,357.84l1.63-7.78h1.17l-.33,1.59c.4-.6.79-1.04,1.17-1.33.38-.29.78-.43,1.18-.43.26,0,.59.1.97.29l-.54,1.23c-.23-.17-.48-.25-.75-.25-.46,0-.94.26-1.43.78s-.87,1.45-1.15,2.79l-.66,3.12h-1.26Z"/>
      <path class="cls-3" d="m161.59,356.77l-.22,1.08c-.32.08-.63.12-.92.12-.53,0-.95-.13-1.26-.39-.23-.2-.35-.46-.35-.8,0-.17.06-.56.19-1.18l.94-4.52h-1.05l.21-1.03h1.05l.4-1.91,1.52-.92-.59,2.83h1.3l-.22,1.03h-1.3l-.9,4.3c-.11.55-.17.87-.17.98,0,.16.04.28.13.36.09.08.24.12.44.12.29,0,.55-.03.78-.09Z"/>
      <path class="cls-3" d="m162.61,357.84l1.62-7.78h1.33l-1.63,7.78h-1.33Zm1.93-9.24l.31-1.5h1.32l-.31,1.5h-1.32Z"/>
      <path class="cls-3" d="m166.18,357.84l1.41-6.75h-1.19l.21-1.03h1.19l.23-1.11c.12-.55.24-.95.36-1.19.12-.24.33-.45.61-.6.28-.16.66-.24,1.15-.24.34,0,.83.07,1.46.21l-.24,1.16c-.45-.12-.83-.18-1.13-.18-.26,0-.46.06-.59.19-.13.13-.25.44-.35.92l-.18.83h1.48l-.21,1.03h-1.48l-1.41,6.75h-1.33Z"/>
      <path class="cls-3" d="m170.48,357.84l.32-1.5h1.51l-.27,1.31c-.17.79-.42,1.36-.77,1.73-.35.37-.76.58-1.23.63l.12-.58c.58-.16.96-.69,1.15-1.59h-.82Z"/>
      <path class="cls-3" d="m178.73,354.89c0-1.52.45-2.78,1.34-3.77.74-.82,1.7-1.23,2.9-1.23.94,0,1.69.29,2.27.88.57.59.86,1.38.86,2.37,0,.89-.18,1.72-.54,2.49-.36.77-.88,1.36-1.54,1.77-.67.41-1.37.62-2.11.62-.61,0-1.16-.13-1.65-.39-.5-.26-.87-.62-1.14-1.1-.26-.47-.39-1.02-.39-1.64Zm1.33-.13c0,.73.18,1.29.53,1.67s.8.57,1.34.57c.28,0,.56-.06.84-.17.28-.11.54-.29.78-.52.24-.23.44-.5.61-.8.17-.3.3-.62.41-.97.15-.48.23-.95.23-1.39,0-.7-.18-1.25-.53-1.64-.35-.39-.8-.58-1.34-.58-.42,0-.79.1-1.13.3-.34.2-.65.49-.93.87-.28.38-.48.82-.61,1.33-.13.5-.19.96-.19,1.35Z"/>
      <path class="cls-3" d="m186.84,357.84l1.63-7.78h1.17l-.33,1.59c.4-.6.79-1.04,1.17-1.33.38-.29.78-.43,1.18-.43.26,0,.59.1.97.29l-.54,1.23c-.23-.17-.48-.25-.75-.25-.46,0-.94.26-1.43.78s-.87,1.45-1.15,2.79l-.66,3.12h-1.26Z"/>
      <path class="cls-3" d="m191.76,358.54l1.34.12c-.01.3.03.53.11.68s.21.27.4.35c.24.11.55.16.93.16.8,0,1.38-.21,1.73-.62.23-.28.44-.88.64-1.82l.13-.63c-.69.7-1.42,1.05-2.2,1.05s-1.44-.29-1.97-.87c-.53-.58-.79-1.4-.79-2.46,0-.87.21-1.68.63-2.41.42-.73.91-1.29,1.49-1.66.58-.37,1.17-.56,1.78-.56,1.02,0,1.81.48,2.36,1.45l.26-1.27h1.22l-1.57,7.51c-.17.83-.4,1.47-.67,1.93-.28.46-.67.82-1.16,1.07-.5.25-1.07.38-1.72.38s-1.16-.08-1.62-.24c-.45-.16-.79-.4-1.01-.71-.22-.31-.33-.67-.33-1.07,0-.12.01-.25.04-.4Zm1.66-4.15c0,.53.05.93.15,1.2.15.38.35.66.63.86.27.2.57.3.9.3.43,0,.87-.15,1.3-.46.43-.3.78-.78,1.04-1.42.27-.64.4-1.25.4-1.83,0-.64-.18-1.15-.53-1.53-.35-.38-.79-.57-1.31-.57-.32,0-.63.09-.94.26-.3.17-.58.44-.85.79-.26.35-.46.78-.59,1.27-.13.49-.2.87-.2,1.12Z"/>
      <path class="cls-3" d="m205.42,356.87c-.46.4-.9.68-1.33.87-.42.18-.88.27-1.36.27-.72,0-1.3-.21-1.74-.63-.44-.42-.66-.96-.66-1.62,0-.43.1-.82.3-1.15.2-.33.46-.6.79-.81s.73-.35,1.2-.44c.3-.06.86-.1,1.7-.14.83-.03,1.43-.12,1.79-.26.1-.36.15-.66.15-.9,0-.31-.11-.55-.34-.73-.31-.24-.76-.37-1.35-.37-.56,0-1.01.12-1.37.37-.35.25-.61.6-.77,1.05l-1.34-.12c.27-.77.71-1.36,1.3-1.77.59-.41,1.34-.62,2.25-.62.96,0,1.72.23,2.29.69.43.34.64.79.64,1.33,0,.42-.06.9-.18,1.44l-.43,1.93c-.14.62-.21,1.12-.21,1.5,0,.24.05.6.16,1.05h-1.34c-.07-.25-.12-.58-.15-.97Zm.49-2.97c-.19.07-.38.13-.6.17-.21.04-.57.08-1.07.12-.77.07-1.32.16-1.63.26-.32.11-.56.27-.72.5-.16.23-.24.48-.24.76,0,.37.13.68.38.92.26.24.62.36,1.09.36.44,0,.86-.12,1.27-.35.4-.23.72-.56.96-.97s.42-1.01.55-1.77Z"/>
      <path class="cls-3" d="m208.52,357.84l1.63-7.78h1.2l-.29,1.35c.52-.53,1.01-.92,1.46-1.16.46-.24.92-.37,1.39-.37.63,0,1.12.17,1.48.51.36.34.54.8.54,1.37,0,.29-.06.74-.19,1.36l-.99,4.71h-1.33l1.03-4.93c.1-.48.15-.83.15-1.06,0-.26-.09-.47-.27-.63-.18-.16-.44-.24-.77-.24-.68,0-1.28.24-1.81.73-.53.49-.92,1.33-1.17,2.51l-.75,3.62h-1.33Z"/>
      <path class="cls-3" d="m216.81,357.84l1.62-7.78h1.33l-1.63,7.78h-1.33Zm1.93-9.24l.31-1.5h1.32l-.31,1.5h-1.32Z"/>
      <path class="cls-3" d="m220.32,355.18l1.33-.08c0,.38.06.71.18.97s.33.49.65.66c.31.17.68.26,1.1.26.59,0,1.03-.12,1.32-.35s.44-.51.44-.83c0-.23-.09-.45-.26-.65-.18-.21-.62-.46-1.32-.76-.7-.3-1.15-.51-1.34-.63-.33-.2-.57-.44-.74-.71-.17-.27-.25-.58-.25-.93,0-.62.24-1.14.73-1.58s1.17-.66,2.05-.66c.98,0,1.72.23,2.23.68.51.45.77,1.05.79,1.78l-1.3.09c-.02-.47-.19-.84-.5-1.11s-.75-.41-1.33-.41c-.46,0-.82.1-1.07.31s-.38.44-.38.68.11.46.33.64c.15.13.52.32,1.13.59,1.02.44,1.66.79,1.92,1.04.42.41.63.9.63,1.48,0,.39-.12.76-.35,1.14-.24.37-.6.67-1.08.89-.49.22-1.06.33-1.72.33-.9,0-1.66-.22-2.29-.67-.63-.44-.93-1.17-.89-2.17Z"/>
      <path class="cls-3" d="m233.41,355.2l1.29.13c-.19.64-.61,1.25-1.28,1.82-.67.58-1.46.86-2.38.86-.58,0-1.1-.13-1.59-.4-.48-.27-.85-.65-1.1-1.16-.25-.51-.38-1.09-.38-1.74,0-.85.2-1.67.59-2.47.39-.8.9-1.39,1.53-1.78.62-.39,1.3-.58,2.03-.58.93,0,1.67.29,2.22.86.55.58.83,1.36.83,2.36,0,.38-.04.77-.1,1.17h-5.73c-.02.15-.03.29-.03.41,0,.73.17,1.28.5,1.67.33.38.74.58,1.23.58.45,0,.9-.15,1.34-.45s.78-.73,1.03-1.29Zm-3.85-1.93h4.37c0-.14,0-.23,0-.29,0-.66-.17-1.17-.5-1.53-.33-.35-.76-.53-1.28-.53-.57,0-1.08.2-1.55.59-.47.39-.81.98-1.04,1.77Zm1.83-4.15l1.38-2.01h1.67l-1.95,2.01h-1.1Z"/>
      <path class="cls-3" d="m236.35,357.84l.32-1.5h1.51l-.27,1.31c-.17.79-.42,1.36-.77,1.73-.35.37-.76.58-1.23.63l.12-.58c.58-.16.96-.69,1.15-1.59h-.82Z"/>
      <path class="cls-3" d="m249.74,355.01l1.33.14c-.33.97-.8,1.69-1.42,2.16-.61.47-1.31.71-2.09.71-.84,0-1.53-.27-2.05-.82-.53-.55-.79-1.31-.79-2.29,0-.85.17-1.68.51-2.5s.82-1.44,1.45-1.87c.63-.43,1.34-.64,2.15-.64s1.5.24,1.99.71.73,1.09.73,1.87l-1.3.09c0-.49-.15-.88-.43-1.16-.28-.28-.65-.42-1.11-.42-.53,0-.99.17-1.38.51-.39.34-.7.85-.92,1.53-.22.69-.33,1.35-.33,1.98s.15,1.16.44,1.49.65.5,1.08.5.84-.16,1.23-.49c.39-.33.7-.83.93-1.49Z"/>
      <path class="cls-3" d="m252.11,354.89c0-1.52.45-2.78,1.34-3.77.74-.82,1.7-1.23,2.9-1.23.94,0,1.69.29,2.27.88.57.59.86,1.38.86,2.37,0,.89-.18,1.72-.54,2.49-.36.77-.88,1.36-1.54,1.77-.67.41-1.37.62-2.11.62-.61,0-1.16-.13-1.65-.39-.5-.26-.87-.62-1.14-1.1-.26-.47-.39-1.02-.39-1.64Zm1.33-.13c0,.73.18,1.29.53,1.67s.8.57,1.34.57c.28,0,.56-.06.84-.17.28-.11.54-.29.78-.52.24-.23.44-.5.61-.8.17-.3.3-.62.41-.97.15-.48.23-.95.23-1.39,0-.7-.18-1.25-.53-1.64-.35-.39-.8-.58-1.34-.58-.42,0-.79.1-1.13.3-.34.2-.65.49-.93.87-.28.38-.48.82-.61,1.33-.13.5-.19.96-.19,1.35Z"/>
      <path class="cls-3" d="m260.21,357.84l1.63-7.78h1.2l-.29,1.35c.52-.53,1.01-.92,1.46-1.16.46-.24.92-.37,1.39-.37.63,0,1.12.17,1.48.51.36.34.54.8.54,1.37,0,.29-.06.74-.19,1.36l-.99,4.71h-1.33l1.03-4.93c.1-.48.15-.83.15-1.06,0-.26-.09-.47-.27-.63-.18-.16-.44-.24-.77-.24-.68,0-1.28.24-1.81.73-.53.49-.92,1.33-1.17,2.51l-.75,3.62h-1.33Z"/>
      <path class="cls-3" d="m270.52,357.84l-1.27-7.78h1.29l.67,4.28c.07.47.16,1.23.27,2.29.25-.55.58-1.18.97-1.9l2.6-4.68h1.4l-4.45,7.78h-1.47Z"/>
      <path class="cls-3" d="m276,357.84l1.62-7.78h1.33l-1.63,7.78h-1.33Zm1.93-9.24l.31-1.5h1.32l-.31,1.5h-1.32Z"/>
      <path class="cls-3" d="m281.35,357.84l-1.27-7.78h1.29l.67,4.28c.07.47.16,1.23.27,2.29.25-.55.58-1.18.97-1.9l2.6-4.68h1.4l-4.45,7.78h-1.47Z"/>
      <path class="cls-3" d="m286.84,357.84l1.62-7.78h1.33l-1.63,7.78h-1.33Zm1.93-9.24l.31-1.5h1.32l-.31,1.5h-1.32Z"/>
      <path class="cls-3" d="m295.47,356.87c-.46.4-.9.68-1.33.87-.42.18-.88.27-1.36.27-.72,0-1.3-.21-1.74-.63-.44-.42-.66-.96-.66-1.62,0-.43.1-.82.3-1.15.2-.33.46-.6.79-.81s.73-.35,1.2-.44c.3-.06.86-.1,1.7-.14.83-.03,1.43-.12,1.79-.26.1-.36.15-.66.15-.9,0-.31-.11-.55-.34-.73-.31-.24-.76-.37-1.35-.37-.56,0-1.01.12-1.37.37-.35.25-.61.6-.77,1.05l-1.34-.12c.27-.77.71-1.36,1.3-1.77.59-.41,1.34-.62,2.25-.62.96,0,1.72.23,2.29.69.43.34.64.79.64,1.33,0,.42-.06.9-.18,1.44l-.43,1.93c-.14.62-.21,1.12-.21,1.5,0,.24.05.6.16,1.05h-1.34c-.07-.25-.12-.58-.15-.97Zm.49-2.97c-.19.07-.38.13-.6.17-.21.04-.57.08-1.07.12-.77.07-1.32.16-1.63.26-.32.11-.56.27-.72.5-.16.23-.24.48-.24.76,0,.37.13.68.38.92.26.24.62.36,1.09.36.44,0,.86-.12,1.27-.35.4-.23.72-.56.96-.97s.42-1.01.55-1.77Z"/>
      <path class="cls-3" d="m298.46,357.84l2.24-10.74h1.33l-2.24,10.74h-1.33Z"/>
    </g>
    <path class="cls-5" d="m335.78,178.62l28.77-47.84s.04-.04.07-.04h30.55c.08,0,.11.1.05.15l-59.32,47.84c-.07.06-.17-.03-.12-.11Z"/>
    <path class="cls-6" d="m315.37,309.77l14.39-23.92s.02-.02.03-.02h15.27s.06.05.03.07l-29.66,23.92s-.08-.01-.06-.05Z"/>
  </g>
</svg>